<svg width="294" height="95" viewBox="0 0 294 95" fill="none" xmlns="http://www.w3.org/2000/svg">
<path d="M1 25V5L55.5 25L31 35L1 25Z" fill="#8C1A1A" stroke="#8C1A1A"/>
<path d="M56.5 44V25.5L31 35L56.5 44Z" fill="#8C1A1A" stroke="#8C1A1A"/>
<path d="M1 46.5L31 35L55.5 44.5L26.5 55.5L56 65.5V85L1 66.5V46.5Z" fill="#8C1A1A"/>
<path d="M1 46.5L31 35L55.5 44.5L26.5 55.5M1 46.5L26.5 55.5M1 46.5V66.5M26.5 55.5L1 66.5M26.5 55.5L56 65.5V85L1 66.5" stroke="#8C1A1A"/>
<path d="M72.7858 18.5231H86.7231L97.3865 84H87.0972L85.2265 70.9982V71.1852H73.5342L71.6634 84H62.1225L72.7858 18.5231ZM84.0105 62.2991L79.4271 29.9348H79.24L74.7502 62.2991H84.0105ZM102.378 18.5231H117.625C122.926 18.5231 126.792 19.7703 129.224 22.2646C131.656 24.6966 132.872 28.4693 132.872 33.5828V37.6049C132.872 44.402 130.627 48.7048 126.137 50.5132V50.7003C128.631 51.4486 130.378 52.9764 131.375 55.2837C132.435 57.591 132.965 60.6777 132.965 64.544V76.0492C132.965 77.92 133.028 79.4478 133.153 80.6326C133.277 81.7551 133.589 82.8775 134.088 84H123.612C123.237 82.9399 122.988 81.9422 122.863 81.0068C122.739 80.0714 122.676 78.3877 122.676 75.9557V63.9828C122.676 60.9895 122.177 58.9005 121.18 57.7157C120.244 56.5309 118.592 55.9385 116.222 55.9385H112.668V84H102.378V18.5231ZM116.409 46.5846C118.467 46.5846 119.995 46.0546 120.993 44.9945C122.053 43.9344 122.583 42.1571 122.583 39.6628V34.6117C122.583 32.242 122.146 30.5272 121.273 29.4671C120.462 28.407 119.153 27.8769 117.345 27.8769H112.668V46.5846H116.409ZM140.104 18.5231H168.166V27.8769H150.394V45.1815H164.518V54.5354H150.394V74.6462H168.166V84H140.104V18.5231ZM174.085 18.5231H201.305V27.8769H184.374V46.1169H197.657V55.4708H184.374V84H174.085V18.5231ZM206.239 18.5231H216.528V74.6462H233.459V84H206.239V18.5231ZM238.393 18.5231H248.682V84H238.393V18.5231ZM265.461 50.5132L254.143 18.5231H264.994L271.915 39.6628H272.102L279.211 18.5231H288.939L277.621 50.5132L289.501 84H278.65L271.167 61.1766H270.98L263.31 84H253.582L265.461 50.5132Z" fill="#A92127"/>
</svg>
